#!OML:ASF F:\VICON\USERDATA\INSTALL\rory3\rory3.ASF
:FULLY-SPECIFIED
:DEGREES
2032
root -1.45828 17.1519 -3.21139 11.3298 0.710577 0.366259
lowerback 21.0953 0.122542 -1.23743
upperback 5.65335 0.113198 2.94729
thorax -5.63858 0.0630357 3.85708
lowerneck -29.0041 -3.46221 -9.49442
upperneck 13.7659 -2.33728 6.61985
head 9.18353 -0.832326 3.48724
rclavicle -5.96354e-015 1.11319e-014
rhumerus -9.73253 16.3537 -66.3735
rradius 71.7073
rwrist 38.2322
rhand -31.2314 5.21625
rfingers 7.12502
rthumb -4.50661 -24.7158
lclavicle -5.96354e-015 1.11319e-014
lhumerus -7.65648 -19.5558 68.8452
lradius 58.992
lwrist -17.2673
lhand -20.4965 19.2268
lfingers 7.12502
lthumb 5.86044 49.1258
rfemur -35.8017 -3.55077 8.58913
rtibia 41.7636
rfoot -13.6895 -5.6091
rtoes -4.01833
lfemur -35.5982 6.59324 -13.9766
ltibia 41.8926
lfoot -12.938 2.95636
ltoes -21.9477
2033
root -1.45812 17.151 -3.14363 10.241 0.833393 0.388236
lowerback 20.8642 0.12099 -1.27162
upperback 5.415 0.108952 2.95731
thorax -5.77632 0.0665916 3.8881
lowerneck -29.0472 -3.44535 -9.51351
upperneck 13.8726 -2.3546 6.84665
head 9.2339 -0.814564 3.57133
rclavicle -3.97569e-016 3.10104e-014
rhumerus -11.0412 16.0138 -66.5894
rradius 72.9068
rwrist 38.3116
rhand -31.4989 5.07467
rfingers 7.12502
rthumb -4.76485 -24.8518
lclavicle -3.97569e-016 3.10104e-014
lhumerus -8.92549 -19.3307 69.1745
lradius 60.1239
lwrist -17.5622
lhand -20.625 19.2692
lfingers 7.12502
lthumb 5.7364 49.1716
rfemur -34.3565 -3.49865 8.54856
rtibia 41.8938
rfoot -14.0872 -5.46332
rtoes -4.5232
lfemur -34.1144 6.48656 -13.8589
ltibia 41.8503
lfoot -13.2663 2.92204
ltoes -21.947
2034
root -1.45402 17.1513 -3.07647 9.25784 0.886138 0.420756
lowerback 20.4752 0.1257 -1.30766
upperback 5.21464 0.11175 2.97373
thorax -5.79032 0.0712472 3.9223
lowerneck -29.2486 -3.53993 -9.87702
upperneck 14.0522 -2.42228 7.30391
head 9.34819 -0.810407 3.78853
rclavicle 1.98785e-015 -2.06736e-014
rhumerus -12.3553 15.6411 -66.7621
rradius 74.3616
rwrist 38.3039
rhand -31.4672 4.94975
rfingers 7.12502
rthumb -4.73426 -24.9774
lclavicle 1.98785e-015 -2.06736e-014
lhumerus -10.1451 -19.0481 69.4864
lradius 61.3101
lwrist -17.7373
lhand -21.1074 19.1717
lfingers 7.12502
lthumb 5.27069 49.0861
rfemur -33.0489 -3.47795 8.49206
rtibia 42.0031
rfoot -14.3725 -5.28083
rtoes -5.50656
lfemur -32.7333 6.40123 -13.7789
ltibia 41.8234
lfoot -13.6121 2.83324
ltoes -21.6269
2035
root -1.45229 17.15 -3.00928 8.24358 1.00047 0.506303
lowerback 20.1115 0.100384 -1.4135
upperback 5.06126 0.0613831 2.99471
thorax -5.76133 0.0496207 4.01449
lowerneck -29.1562 -3.65005 -10.1641
upperneck 13.7911 -2.49271 7.47354
head 9.25419 -0.837861 3.87958
rclavicle -3.97569e-016 -1.59028e-014
rhumerus -13.3627 15.3222 -66.8885
rradius 75.602
rwrist 37.9048
rhand -31.2444 5.01129
rfingers 7.12502
rthumb -4.51918 -24.9205
lclavicle -3.97569e-016 -1.59028e-014
lhumerus -11.2314 -18.612 69.7282
lradius 62.5026
lwrist -18.2007
lhand -21.2395 19.1217
lfingers 7.12502
lthumb 5.14308 49.0393
rfemur -31.6811 -3.49382 8.38996
rtibia 42.0972
rfoot -14.7111 -5.17192
rtoes -6.6248
lfemur -31.3238 6.29449 -13.7515
ltibia 41.7981
lfoot -13.9386 2.72054
ltoes -21.4924
2036
root -1.45333 17.147 -2.94037 7.19397 1.06018 0.554423
lowerback 19.8342 0.0977198 -1.51286
upperback 4.91046 0.0400947 2.9879
thorax -5.77651 0.0426413 4.06684
lowerneck -29.1617 -3.71078 -10.1971
upperneck 13.6365 -2.55749 7.48559
head 9.20715 -0.866525 3.87607
rclavicle -7.15625e-015 3.18055e-014
rhumerus -14.1551 14.935 -67.0851
rradius 76.5692
rwrist 37.366
rhand -30.879 5.46337
rfingers 7.12502
rthumb -4.16632 -24.4756
lclavicle -7.15625e-015 3.18055e-014
lhumerus -12.3528 -18.1359 69.8846
lradius 63.882
lwrist -18.861
lhand -20.9515 19.3887
lfingers 7.12502
lthumb 5.42114 49.2993
rfemur -30.2638 -3.31358 8.3018
rtibia 42.1802
rfoot -15.1259 -5.12283
rtoes -7.19
lfemur -29.8407 6.24352 -13.6567
ltibia 41.7689
lfoot -14.3268 2.62644
ltoes -21.3118
2037
root -1.45749 17.145 -2.86648 6.10768 0.973013 0.611143
lowerback 19.6032 0.145413 -1.73327
upperback 4.77038 0.0617717 3.00153
thorax -5.80723 0.05801 4.20125
lowerneck -29.3783 -3.71752 -10.2741
upperneck 13.7866 -2.53968 7.58607
head 9.29565 -0.848363 3.93169
rclavicle -3.57812e-015 7.15625e-015
rhumerus -14.9889 14.6276 -67.2589
rradius 77.582
rwrist 37.214
rhand -30.8231 5.60899
rfingers 7.12502
rthumb -4.11234 -24.3311
lclavicle -3.57812e-015 7.15625e-015
lhumerus -13.5409 -17.6147 70.0686
lradius 65.3042
lwrist -19.3589
lhand -20.9017 19.7147
lfingers 7.12502
lthumb 5.46924 49.6241
rfemur -28.818 -2.98123 8.18512
rtibia 42.2834
rfoot -15.5793 -4.96272
rtoes -7.25606
lfemur -28.2644 6.33033 -13.567
ltibia 41.7241
lfoot -14.7827 2.5398
ltoes -21.2485
2038
root -1.45752 17.1405 -2.79524 5.17929 0.951093 0.787384
lowerback 19.2109 0.162898 -1.9713
upperback 4.638 0.0394902 2.97268
thorax -5.74004 0.0505268 4.30742
lowerneck -29.5542 -3.73769 -10.3104
upperneck 13.8217 -2.54611 7.64031
head 9.33791 -0.844093 3.95789
rclavicle -1.98785e-015 3.97569e-015
rhumerus -15.8122 14.245 -67.4033
rradius 78.7235
rwrist 37.4353
rhand -31.3009 5.22127
rfingers 7.12502
rthumb -4.57373 -24.7094
lclavicle -1.98785e-015 3.97569e-015
lhumerus -14.7066 -17.0579 70.2609
lradius 66.7922
lwrist -19.697
lhand -21.2553 19.9822
lfingers 7.12502
lthumb 5.12786 49.9002
rfemur -27.5485 -2.9102 7.9513
rtibia 42.4102
rfoot -15.9524 -4.63113
rtoes -7.06454
lfemur -26.9182 6.3306 -13.639
ltibia 41.7042
lfoot -15.1935 2.48528
ltoes -21.0724
2039
root -1.45309 17.1305 -2.73062 4.45126 1.07144 0.999605
lowerback 18.6463 0.122263 -2.09207
upperback 4.46063 -0.0359894 2.89173
thorax -5.62441 0.0155273 4.2995
lowerneck -29.6346 -3.76431 -10.2501
upperneck 13.8061 -2.59143 7.6145
head 9.34817 -0.863119 3.93159
rclavicle 1.59028e-015 -3.18055e-015
rhumerus -16.8572 13.6707 -67.6175
rradius 80.2101
rwrist 37.6888
rhand -31.849 5.1133
rfingers 7.12502
rthumb -5.1029 -24.8053
lclavicle 1.59028e-015 -3.18055e-015
lhumerus -15.8682 -16.4855 70.4269
lradius 68.3428
lwrist -20.0956
lhand -22.092 19.94
lfingers 7.12502
lthumb 4.31992 49.8759
rfemur -26.5184 -2.99626 7.66357
rtibia 42.5744
rfoot -16.2235 -4.32777
rtoes -6.97451
lfemur -25.8773 6.21859 -13.7997
ltibia 41.7147
lfoot -15.5279 2.48344
ltoes -21.3034
2040
root -1.44786 17.1166 -2.66679 3.88313 1.22381 1.05395
lowerback 17.9744 0.0537831 -2.05767
upperback 4.22289 -0.113432 2.85861
thorax -5.51492 -0.0211761 4.2528
lowerneck -29.586 -3.75372 -10.2221
upperneck 13.6733 -2.58173 7.58557
head 9.29146 -0.859775 3.91545
rclavicle -7.55382e-015 1.59028e-015
rhumerus -17.8842 13.1536 -67.7929
rradius 81.6887
rwrist 37.8222
rhand -32.342 5.28307
rfingers 7.12502
rthumb -5.57891 -24.6235
lclavicle -7.55382e-015 1.59028e-015
lhumerus -17.0622 -15.8801 70.6405
lradius 69.8819
lwrist -20.594
lhand -23.2133 19.7803
lfingers 7.12502
lthumb 3.23712 49.7355
rfemur -25.7006 -3.02814 7.55424
rtibia 42.7745
rfoot -16.536 -4.13183
rtoes -6.71947
lfemur -25.0783 6.13877 -13.8087
ltibia 41.7849
lfoot -15.8321 2.47111
ltoes -21.4917
2041
root -1.4425 17.1029 -2.6051 3.42752 1.35074 1.10354
lowerback 17.2262 -0.00317924 -2.05827
upperback 3.96467 -0.179845 2.85605
thorax -5.38481 -0.052245 4.25482
lowerneck -29.547 -3.74791 -10.2423
upperneck 13.5604 -2.55295 7.52931
head 9.24157 -0.853628 3.90066
rclavicle -7.95139e-016 -2.94201e-014
rhumerus -18.8003 12.6497 -67.9053
rradius 83.0702
rwrist 37.8897
rhand -32.7699 5.26618
rfingers 7.12502
rthumb -5.99205 -24.6291
lclavicle -7.95139e-016 -2.94201e-014
lhumerus -18.0293 -15.3682 70.8134
lradius 71.236
lwrist -20.7576
lhand -23.7734 19.9502
lfingers 7.12502
lthumb 2.69616 49.9129
rfemur -25.012 -3.08585 7.45655
rtibia 42.9804
rfoot -16.9154 -3.93995
rtoes -6.09077
lfemur -24.4193 6.0451 -13.8167
ltibia 41.8752
lfoot -16.1524 2.48888
ltoes -21.607
2042
root -1.43653 17.0903 -2.54618 3.05599 1.45663 1.16587
lowerback 16.4433 -0.0456485 -2.07954
upperback 3.6751 -0.230771 2.84634
thorax -5.26787 -0.0749165 4.25677
lowerneck -29.555 -3.76402 -10.3217
upperneck 13.6135 -2.55496 7.58129
head 9.26387 -0.853186 3.93296
rclavicle -3.18055e-015 4.77083e-015
rhumerus -19.663 11.9811 -68.0625
rradius 84.443
rwrist 38.1341
rhand -33.256 5.30912
rfingers 7.12502
rthumb -6.46136 -24.5723
lclavicle -3.18055e-015 4.77083e-015
lhumerus -18.96 -14.9745 70.9536
lradius 72.5459
lwrist -20.5198
lhand -24.1449 20.3141
lfingers 7.12502
lthumb 2.33739 50.281
rfemur -24.4324 -3.22537 7.35077
rtibia 43.1649
rfoot -17.2078 -3.78563
rtoes -6.41934
lfemur -23.8373 5.92222 -13.8382
ltibia 41.9744
lfoot -16.4567 2.49724
ltoes -21.4404
2043
root -1.43246 17.0854 -2.48059 2.53855 1.49392 1.2507
lowerback 15.7815 -0.0632698 -2.1819
upperback 3.45266 -0.263864 2.83566
thorax -5.1432 -0.0890839 4.30137
lowerneck -29.6335 -3.76548 -10.354
upperneck 13.7431 -2.54626 7.60875
head 9.32231 -0.847729 3.95238
rclavicle 4.17448e-015 -2.38542e-015
rhumerus -20.3787 11.3388 -68.19
rradius 85.7276
rwrist 38.3364
rhand -33.7355 5.57774
rfingers 7.12502
rthumb -6.92421 -24.289
lclavicle 4.17448e-015 -2.38542e-015
lhumerus -19.9998 -14.5138 71.0843
lradius 74.0279
lwrist -20.4297
lhand -25.1664 20.0247
lfingers 7.12502
lthumb 1.35089 50.0001
rfemur -23.6917 -3.29024 7.21781
rtibia 43.3093
rfoot -17.4674 -3.59767
rtoes -7.29994
lfemur -23.0305 5.892 -13.8767
ltibia 42.041
lfoot -16.7866 2.50134
ltoes -21.5674
2044
root -1.43389 17.0765 -2.4126 1.73721 1.51164 1.31471
lowerback 15.4047 -0.0524116 -2.29965
upperback 3.3506 -0.264917 2.82091
thorax -5.0465 -0.0886207 4.34761
lowerneck -29.7178 -3.75972 -10.3802
upperneck 13.7686 -2.52548 7.63712
head 9.34345 -0.834877 3.9713
rclavicle -1.0138e-014 1.43125e-014
rhumerus -21.0412 10.7875 -68.2556
rradius 87.0006
rwrist 38.3808
rhand -34.4216 5.80431
rfingers 7.12502
rthumb -7.58655 -24.0396
lclavicle -1.0138e-014 1.43125e-014
lhumerus -20.9853 -13.9176 71.1887
lradius 75.6024
lwrist -20.7079
lhand -26.3035 19.3669
lfingers 7.12502
lthumb 0.252641 49.3465
rfemur -22.5986 -3.21337 7.10841
rtibia 43.426
rfoot -17.7924 -3.3881
rtoes -7.69613
lfemur -21.8899 5.91429 -13.8316
ltibia 42.0878
lfoot -17.203 2.47084
ltoes -21.7606
2045
root -1.43613 17.0634 -2.34703 0.738973 1.66464 1.29166
lowerback 15.2895 -0.0936072 -2.28693
upperback 3.28313 -0.315607 2.81662
thorax -5.05102 -0.11257 4.34431
lowerneck -29.8458 -3.70091 -10.3229
upperneck 13.7833 -2.45067 7.61524
head 9.36032 -0.797335 3.9674
rclavicle 5.1684e-015 -3.26007e-014
rhumerus -21.7819 10.2959 -68.3718
rradius 88.3614
rwrist 38.4094
rhand -35.4777 5.84294
rfingers 7.12502
rthumb -8.6058 -23.9617
lclavicle 5.1684e-015 -3.26007e-014
lhumerus -21.9415 -13.2525 71.2935
lradius 77.2342
lwrist -21.181
lhand -26.7527 19.5397
lfingers 7.12502
lthumb -0.181194 49.5193
rfemur -21.2269 -3.17419 7.08312
rtibia 43.5357
rfoot -18.2015 -3.23055
rtoes -7.68148
lfemur -20.5681 5.82811 -13.6536
ltibia 42.1291
lfoot -17.6045 2.37681
ltoes -21.9049
